<?xml version="1.0" encoding="utf-8"?>
<!-- Generator: Adobe Illustrator 16.0.0, SVG Export Plug-In . SVG Version: 6.00 Build 0)  -->
<!DOCTYPE svg PUBLIC "-//W3C//DTD SVG 1.1//EN" "http://www.w3.org/Graphics/SVG/1.1/DTD/svg11.dtd">
<svg version="1.1" id="Layer_1" xmlns="http://www.w3.org/2000/svg" xmlns:xlink="http://www.w3.org/1999/xlink" x="0px" y="0px"
	 width="100px" height="100px" viewBox="0 0 100 100" style="enable-background:new 0 0 100 100;" xml:space="preserve">
<style type="text/css">
<![CDATA[
	.st0{fill:#FFFFFF;}
]]>
</style>
<g transform="translate(0,-952.36218)">
	<path class="st0" d="M50,972.4c-16.6,0-30,13.4-30,30c0,16.6,13.4,30,30,30c16.6,0,30-13.4,30-30C80,985.8,66.6,972.4,50,972.4z
		 M43.3,989.2c0.3,0,0.7,0,1,0.2l19,11.7c0.7,0.4,0.9,1.3,0.5,2c-0.1,0.2-0.3,0.4-0.5,0.5l-19,11.7c-0.7,0.4-1.6,0.2-2-0.5
		c-0.1-0.2-0.2-0.5-0.2-0.8v-23.4C42,990,42.5,989.3,43.3,989.2L43.3,989.2z M44.9,993.3v18.2l14.7-9.1L44.9,993.3z"/>
</g>
</svg>
