<?xml version="1.0" encoding="utf-8"?>
<!-- Generator: Adobe Illustrator 16.0.0, SVG Export Plug-In . SVG Version: 6.00 Build 0)  -->
<!DOCTYPE svg PUBLIC "-//W3C//DTD SVG 1.1//EN" "http://www.w3.org/Graphics/SVG/1.1/DTD/svg11.dtd">
<svg version="1.1" id="Layer_1" xmlns="http://www.w3.org/2000/svg" xmlns:xlink="http://www.w3.org/1999/xlink" x="0px" y="0px"
	 width="80px" height="80px" viewBox="0 0 80 80" enable-background="new 0 0 80 80" xml:space="preserve">
<title>checkmark-unfilled</title>
<desc>Created with Sketch.</desc>
<g>
	<g transform="translate(-13.000000, -13.000000)">
		<path d="M53,13c-21.681,0-40,18.319-40,40s18.319,40,40,40c21.682,0,40-18.318,40-40S74.682,13,53,13L53,13z M53,89.191
			c-19.618,0-36.19-16.574-36.19-36.191c0-19.618,16.573-36.19,36.19-36.19c19.617,0,36.19,16.573,36.19,36.19
			C89.19,72.617,72.617,89.191,53,89.191z M70.719,39.761L46.82,63.656L36.234,53.07c-0.744-0.744-1.949-0.744-2.693,0
			s-0.744,1.949,0,2.693l11.934,11.934c0.356,0.357,0.843,0.557,1.345,0.557c0.505,0,0.986-0.199,1.343-0.557l25.243-25.243
			c0.744-0.744,0.744-1.949,0-2.693S71.463,39.017,70.719,39.761z"/>
	</g>
</g>
</svg>
