<?xml version="1.0" encoding="utf-8"?>
<!-- Generator: Adobe Illustrator 21.0.0, SVG Export Plug-In . SVG Version: 6.00 Build 0)  -->
<svg version="1.1" id="Layer_1" xmlns="http://www.w3.org/2000/svg" xmlns:xlink="http://www.w3.org/1999/xlink" x="0px" y="0px"
	 viewBox="0 0 20 20" style="enable-background:new 0 0 20 20;" xml:space="preserve">
<style type="text/css">
	.st0{fill:none;stroke:#000000;stroke-width:2;stroke-linecap:round;stroke-linejoin:round;stroke-miterlimit:10;}
</style>
<title>email</title>
<desc>Created with Sketch.</desc>
<g>
	<path d="M17,2c0.5,0,1,0.5,1,1v14c0,0.5-0.5,1-1,1H3c-0.5,0-1-0.5-1-1V3c0-0.5,0.5-1,1-1H17 M17,0H3C1.4,0,0,1.4,0,3v14
		c0,1.7,1.4,3,3,3h14c1.7,0,3-1.3,3-3V3C20,1.4,18.7,0,17,0L17,0z"/>
</g>
<polyline class="st0" points="2,2.2 10,10.8 18,1.2 "/>
</svg>
