<?xml version="1.0" encoding="utf-8"?>
<!-- Generator: Adobe Illustrator 16.0.0, SVG Export Plug-In . SVG Version: 6.00 Build 0)  -->
<!DOCTYPE svg PUBLIC "-//W3C//DTD SVG 1.1//EN" "http://www.w3.org/Graphics/SVG/1.1/DTD/svg11.dtd">
<svg version="1.1" id="Layer_1" xmlns="http://www.w3.org/2000/svg" xmlns:xlink="http://www.w3.org/1999/xlink" x="0px" y="0px"
	 width="20px" height="20px" viewBox="0 0 20 20" enable-background="new 0 0 20 20" xml:space="preserve">
<title>email</title>
<desc>Created with Sketch.</desc>
<g id="Page-1">
	<g id="Artboard" transform="translate(-184.000000, -190.000000)">
		<path id="email" d="M203.969,196.143v12.046c0,0.498-0.174,0.924-0.521,1.278c-0.35,0.355-0.768,0.532-1.258,0.532h-16.378
			c-0.489,0-0.908-0.177-1.257-0.532c-0.349-0.354-0.523-0.78-0.523-1.278v-12.046c0.327,0.371,0.701,0.699,1.123,0.986
			c2.686,1.858,4.529,3.16,5.53,3.908c0.423,0.318,0.766,0.564,1.03,0.742c0.263,0.179,0.614,0.359,1.051,0.545
			s0.846,0.277,1.224,0.277h0.022c0.378,0,0.786-0.093,1.224-0.277c0.437-0.186,0.787-0.366,1.052-0.545
			c0.264-0.178,0.605-0.424,1.028-0.742c1.262-0.929,3.106-2.231,5.542-3.908C203.279,196.834,203.65,196.506,203.969,196.143
			L203.969,196.143z M203.969,191.812c0,0.597-0.181,1.167-0.545,1.71c-0.363,0.544-0.814,1.008-1.356,1.394
			c-2.788,1.971-4.524,3.198-5.206,3.682c-0.074,0.054-0.232,0.169-0.475,0.346c-0.24,0.178-0.44,0.322-0.601,0.431
			c-0.159,0.109-0.353,0.231-0.579,0.369c-0.226,0.135-0.438,0.236-0.64,0.305c-0.2,0.068-0.385,0.103-0.556,0.103H194h-0.011
			c-0.171,0-0.356-0.034-0.556-0.103c-0.201-0.069-0.414-0.17-0.64-0.305c-0.226-0.138-0.419-0.26-0.578-0.369
			c-0.16-0.109-0.36-0.253-0.601-0.431c-0.241-0.177-0.398-0.292-0.473-0.346c-0.675-0.483-1.646-1.172-2.915-2.067
			c-1.268-0.896-2.029-1.433-2.281-1.614c-0.46-0.318-0.895-0.753-1.302-1.309c-0.409-0.555-0.612-1.07-0.612-1.546
			c0-0.589,0.154-1.08,0.461-1.473c0.308-0.394,0.748-0.589,1.319-0.589h16.377c0.481,0,0.901,0.177,1.253,0.532
			C203.793,190.887,203.969,191.314,203.969,191.812L203.969,191.812z"/>
	</g>
</g>
</svg>
