<?xml version="1.0" encoding="utf-8"?>
<!-- Generator: Adobe Illustrator 16.0.0, SVG Export Plug-In . SVG Version: 6.00 Build 0)  -->
<!DOCTYPE svg PUBLIC "-//W3C//DTD SVG 1.1//EN" "http://www.w3.org/Graphics/SVG/1.1/DTD/svg11.dtd">
<svg version="1.1" id="Layer_1" xmlns="http://www.w3.org/2000/svg" xmlns:xlink="http://www.w3.org/1999/xlink" x="0px" y="0px"
	 width="20px" height="20px" viewBox="0 0 20 20" enable-background="new 0 0 20 20" xml:space="preserve">
<title>email</title>
<desc>Created with Sketch.</desc>
<path fill="#FFFFFF" d="M17,0H3C1.351,0,0,1.35,0,3v14c0,1.65,1.351,3,3,3h14c1.65,0,3-1.35,3-3V3C20,1.35,18.65,0,17,0z M16.237,2
	L9.969,9.303L3.164,2H16.237z M17,18H3c-0.541,0-1-0.458-1-1V3.685l7.269,7.8c0.188,0.203,0.454,0.318,0.731,0.318
	c0.007,0,0.014,0,0.021,0c0.284-0.006,0.553-0.133,0.738-0.349L18,3.018V17C18,17.542,17.542,18,17,18z"/>
</svg>
