<?xml version="1.0" encoding="utf-8"?>
<!-- Generator: Adobe Illustrator 21.0.0, SVG Export Plug-In . SVG Version: 6.00 Build 0)  -->
<svg version="1.1" id="Layer_1" xmlns="http://www.w3.org/2000/svg" xmlns:xlink="http://www.w3.org/1999/xlink" x="0px" y="0px"
	 viewBox="0 0 20 20" style="enable-background:new 0 0 20 20;" xml:space="preserve">
<style type="text/css">
	.st0{fill:#FFFFFF;}
</style>
<title>email</title>
<desc>Created with Sketch.</desc>
<path class="st0" d="M17,0H3C1.4,0,0,1.4,0,3v14c0,1.6,1.4,3,3,3h14c1.6,0,3-1.4,3-3V3C20,1.4,18.6,0,17,0z M16.2,2L10,9.3L3.2,2
	H16.2z M17,18H3c-0.5,0-1-0.5-1-1V3.7l7.3,7.8c0.2,0.2,0.5,0.3,0.7,0.3c0,0,0,0,0,0c0.3,0,0.6-0.1,0.7-0.3L18,3v14
	C18,17.5,17.5,18,17,18z"/>
</svg>
