<?xml version="1.0" encoding="utf-8"?>
<!-- Generator: Adobe Illustrator 16.0.0, SVG Export Plug-In . SVG Version: 6.00 Build 0)  -->
<!DOCTYPE svg PUBLIC "-//W3C//DTD SVG 1.1//EN" "http://www.w3.org/Graphics/SVG/1.1/DTD/svg11.dtd">
<svg version="1.1" id="Layer_1" xmlns="http://www.w3.org/2000/svg" xmlns:xlink="http://www.w3.org/1999/xlink" x="0px" y="0px"
	 width="20px" height="20px" viewBox="0 0 20 20" enable-background="new 0 0 20 20" xml:space="preserve">
<title>fb</title>
<desc>Created with Sketch.</desc>
<g id="Page-1">
	<g id="Artboard" transform="translate(-165.000000, -190.000000)">
		<path id="fb" d="M183.879,190.016c0.303,0,0.562,0.108,0.779,0.325c0.219,0.217,0.326,0.478,0.326,0.78v17.759
			c0,0.302-0.107,0.562-0.326,0.778c-0.217,0.217-0.477,0.324-0.779,0.324h-5.083v-7.734h2.589l0.389-3.016h-2.978v-1.924
			c0-0.485,0.103-0.849,0.306-1.092c0.205-0.243,0.603-0.364,1.189-0.364l1.586-0.013v-2.691c-0.547-0.078-1.314-0.117-2.314-0.117
			c-1.18,0-2.121,0.347-2.824,1.04c-0.706,0.693-1.062,1.673-1.062,2.938v2.223h-2.6v3.016h2.6v7.734h-9.555
			c-0.303,0-0.562-0.105-0.78-0.324c-0.217-0.219-0.325-0.479-0.325-0.778v-17.759c0-0.303,0.108-0.563,0.325-0.78
			c0.218-0.217,0.478-0.325,0.78-0.325H183.879L183.879,190.016z"/>
	</g>
</g>
</svg>
