<?xml version="1.0" encoding="utf-8"?>
<!-- Generator: Adobe Illustrator 16.0.0, SVG Export Plug-In . SVG Version: 6.00 Build 0)  -->
<!DOCTYPE svg PUBLIC "-//W3C//DTD SVG 1.1//EN" "http://www.w3.org/Graphics/SVG/1.1/DTD/svg11.dtd">
<svg version="1.1" id="Layer_1" xmlns="http://www.w3.org/2000/svg" xmlns:xlink="http://www.w3.org/1999/xlink" x="0px" y="0px"
	 width="20px" height="20px" viewBox="0 0 20 20" style="enable-background:new 0 0 20 20;" xml:space="preserve">
<style type="text/css">
<![CDATA[
	.st0{fill:#010101;}
]]>
</style>
<g>
	<path class="st0" d="M10,1.8c2.7,0,3,0,4,0.1c1,0,1.5,0.2,1.9,0.3C16.4,2.4,16.7,2.6,17,3c0.4,0.4,0.6,0.7,0.8,1.2
		C17.9,4.5,18.1,5,18.1,6c0,1.1,0.1,1.4,0.1,4c0,2.7,0,3-0.1,4c0,1-0.2,1.5-0.3,1.9c-0.2,0.5-0.4,0.8-0.8,1.2
		c-0.3,0.3-0.7,0.6-1.2,0.7C15.5,18,15,18.1,14,18.2c-1.1,0-1.4,0.1-4,0.1c-2.7,0-3,0-4-0.1c-1,0-1.5-0.2-1.9-0.3
		c-0.5-0.2-0.8-0.4-1.2-0.7c-0.4-0.4-0.6-0.7-0.7-1.2C2,15.6,1.9,15,1.8,14.1c0-1.1-0.1-1.4-0.1-4c0-2.7,0-3,0.1-4
		c0-1,0.2-1.5,0.3-1.9C2.4,3.6,2.6,3.3,2.9,3c0.4-0.4,0.7-0.6,1.2-0.7C4.4,2.1,5,1.9,5.9,1.9C7,1.8,7.3,1.8,10,1.8 M10,0
		C7.3,0,6.9,0,5.9,0.1c-1.1,0-1.8,0.2-2.4,0.5C2.8,0.8,2.2,1.1,1.7,1.7C1.1,2.2,0.8,2.8,0.5,3.5C0.3,4.1,0.1,4.8,0,5.9
		C0,7,0,7.3,0,10c0,2.7,0,3.1,0.1,4.1c0,1.1,0.2,1.8,0.5,2.4c0.3,0.7,0.6,1.2,1.2,1.8c0.6,0.6,1.1,0.9,1.8,1.2
		c0.6,0.2,1.4,0.4,2.4,0.5C6.9,20,7.3,20,10,20c2.7,0,3.1,0,4.1-0.1c1.1,0,1.8-0.2,2.4-0.5c0.7-0.3,1.2-0.6,1.8-1.2
		c0.6-0.6,0.9-1.1,1.2-1.8c0.2-0.6,0.4-1.4,0.5-2.4c0-1.1,0.1-1.4,0.1-4.1c0-2.7,0-3.1-0.1-4.1c0-1.1-0.2-1.8-0.5-2.4
		c-0.3-0.7-0.6-1.2-1.2-1.8c-0.6-0.6-1.1-0.9-1.8-1.2c-0.6-0.2-1.4-0.4-2.4-0.5C13,0,12.7,0,10,0L10,0z"/>
	<path class="st0" d="M10,4.9c-2.8,0-5.1,2.3-5.1,5.1c0,2.8,2.3,5.1,5.1,5.1c2.8,0,5.1-2.3,5.1-5.1C15.1,7.2,12.8,4.9,10,4.9z
		 M10,13.3c-1.8,0-3.3-1.5-3.3-3.3S8.1,6.7,10,6.7c1.8,0,3.3,1.5,3.3,3.3S11.8,13.3,10,13.3z"/>
	<circle class="st0" cx="15.3" cy="4.7" r="1.2"/>
</g>
</svg>
