<?xml version="1.0" encoding="utf-8"?>
<!-- Generator: Adobe Illustrator 16.0.0, SVG Export Plug-In . SVG Version: 6.00 Build 0)  -->
<!DOCTYPE svg PUBLIC "-//W3C//DTD SVG 1.1//EN" "http://www.w3.org/Graphics/SVG/1.1/DTD/svg11.dtd">
<svg version="1.1" id="Layer_1" xmlns="http://www.w3.org/2000/svg" xmlns:xlink="http://www.w3.org/1999/xlink" x="0px" y="0px"
	 width="43px" height="61px" viewBox="0 0 43 61" style="enable-background:new 0 0 43 61;" xml:space="preserve">
<style type="text/css">
<![CDATA[
	.st0{fill:#010101;}
]]>
</style>
<g transform="translate(0,-952.36218)">
	<path class="st0" d="M21.6,952.4c-11.9,0-21.5,9.6-21.5,21.4c0,4.3,1.3,8.2,3.4,11.6l18.1,28l18.1-28c2.2-3.3,3.4-7.3,3.4-11.6
		C43.1,961.9,33.5,952.4,21.6,952.4z M21.6,964.2c5.3,0,9.6,4.3,9.6,9.5c0,5.3-4.3,9.5-9.6,9.5S12,979,12,973.8
		C12,968.5,16.3,964.2,21.6,964.2z"/>
</g>
</svg>
